<svg xmlns="http://www.w3.org/2000/svg" width="32" height="32" viewBox="0 0 256 256"><defs><linearGradient id="a"><stop offset="0" stop-color="#b565a7"/><stop offset="1" stop-color="#5f4b8b"/></linearGradient></defs><path d="M224 128a96 96 0 1 1-96-96 96 96 0 0 1 96 96z" fill="url(#a)" opacity=".25"/><path fill="#5f4b8b" d="M128 24a104 104 0 1 0 104 104A104.11 104.11 0 0 0 128 24zm0 192a88 88 0 1 1 88-88 88.1 88.1 0 0 1-88 88zm21.66-122.34L115.31 128l34.35 34.34a8 8 0 0 1-11.32 11.32l-40-40a8 8 0 0 1 0-11.32l40-40a8 8 0 0 1 11.32 11.32z"/><path fill="url(#a)" d="M128 24a104 104 0 1 0 104 104A104.11 104.11 0 0 0 128 24zm0 192a88 88 0 1 1 88-88 88.1 88.1 0 0 1-88 88zm21.66-122.34L115.31 128l34.35 34.34a8 8 0 0 1-11.32 11.32l-40-40a8 8 0 0 1 0-11.32l40-40a8 8 0 0 1 11.32 11.32z"/></svg>