<svg xmlns="http://www.w3.org/2000/svg" width="32" height="32" viewBox="0 0 256 256"><defs><linearGradient id="a"><stop offset="0" stop-color="#b565a7"/><stop offset="1" stop-color="#5f4b8b"/></linearGradient></defs><path d="M240 128l-72 64H88l-72-64 72-64h80z" fill="url(#a)" opacity=".25"/><path fill="#5f4b8b" d="M93.31 70L28 128l65.27 58a8 8 0 1 1-10.62 12l-72-64a8 8 0 0 1 0-12l72-64a8 8 0 1 1 10.66 12zm152 52l-72-64a8 8 0 0 0-10.62 12L228 128l-65.27 58a8 8 0 1 0 10.62 12l72-64a8 8 0 0 0 0-12z"/><path fill="url(#a)" d="M93.31 70L28 128l65.27 58a8 8 0 1 1-10.62 12l-72-64a8 8 0 0 1 0-12l72-64a8 8 0 1 1 10.66 12zm152 52l-72-64a8 8 0 0 0-10.62 12L228 128l-65.27 58a8 8 0 1 0 10.62 12l72-64a8 8 0 0 0 0-12z"/></svg>