<svg xmlns="http://www.w3.org/2000/svg" width="32" height="32" viewBox="0 0 256 256" focusable="false">
  <defs>
    <linearGradient id="gradient">
      <stop offset="0" stop-color="#b565a7"></stop>
      <stop offset="1" stop-color="#5f4b8b"></stop>
    </linearGradient>
  </defs>
  <path d="M240,128l-72,64H88L16,128,88,64h80Z" fill="url(#gradient)" opacity="0.25"></path>
  <path
    fill="#5f4b8b"
    id="code-solid"
    d="M93.31,70,28,128l65.27,58a8,8,0,1,1-10.62,12l-72-64a8,8,0,0,1,0-12l72-64A8,8,0,1,1,93.31,70Zm152,52-72-64a8,8,0,0,0-10.62,12L228,128l-65.27,58a8,8,0,1,0,10.62,12l72-64a8,8,0,0,0,0-12Z"
  ></path>
  <path
    fill="url(#gradient)"
    id="code-gradient"
    d="M93.31,70,28,128l65.27,58a8,8,0,1,1-10.62,12l-72-64a8,8,0,0,1,0-12l72-64A8,8,0,1,1,93.31,70Zm152,52-72-64a8,8,0,0,0-10.62,12L228,128l-65.27,58a8,8,0,1,0,10.62,12l72-64a8,8,0,0,0,0-12Z"
  ></path>
</svg>
