<svg xmlns="http://www.w3.org/2000/svg" width="32" height="32" viewBox="0 0 256 256"><path d="M224 128a96 96 0 1 1-96-96 48 48 0 0 0 48 48 48 48 0 0 0 48 48z" fill="#d8dee9" opacity=".25"/><path fill="#d8dee9" d="M164.49 163.51a12 12 0 1 1-17 0 12 12 0 0 1 17 0zm-81-8a12 12 0 1 0 17 0 12 12 0 0 0-16.98 0zm9-39a12 12 0 1 0-17 0 12 12 0 0 0 17-.02zm48-1a12 12 0 1 0 0 17 12 12 0 0 0 0-17zM232 128A104 104 0 1 1 128 24a8 8 0 0 1 8 8 40 40 0 0 0 40 40 8 8 0 0 1 8 8 40 40 0 0 0 40 40 8 8 0 0 1 8 8zm-16.31 7.39A56.13 56.13 0 0 1 168.5 87.5a56.13 56.13 0 0 1-47.89-47.19 88 88 0 1 0 95.08 95.08z"/></svg>