<svg xmlns="http://www.w3.org/2000/svg" viewBox="0 0 1200 1200" width="300" height="300"><defs><linearGradient id="gradient-default"><stop offset="0" stop-color="#b565a7"/><stop offset="1" stop-color="#5f4b8b"/></linearGradient><linearGradient id="gradient-alt"><stop offset="0" stop-color="#4a9a58"/><stop offset="1" stop-color="#a0b474"/></linearGradient></defs><style>.frame{fill:#fff;stroke:url(#gradient-default);stroke-linecap:round;stroke-linejoin:round;stroke-width:200}.letters{fill:#2e3440}@media (prefers-color-scheme:dark){.frame{fill:#2e3440;stroke:url(#gradient-alt)}.letters{fill:#fff}}</style><path class="frame" d="M50 0h1100c27.65 0 50 22.35 50 50v1100c0 27.65-22.35 50-50 50H50c-27.65 0-50-22.35-50-50V50C0 22.35 22.35 0 50 0z"/><path class="letters" d="M357.98 870q-7.7 0-12.32-4.62-4.62-5.39-4.62-13.09V348.71q0-7.7 4.62-12.32 4.62-5.39 12.32-5.39h38.5q8.47 0 13.09 4.62 4.62 4.62 4.62 13.09v503.58q0 7.7-5.39 13.09-4.62 4.62-12.32 4.62h-38.5zm-20.31 0q-7.7 0-12.32-4.62-4.62-5.39-4.62-13.09V348.71q0-7.7 4.62-12.32 4.62-5.39 12.32-5.39h38.5q8.47 0 13.09 4.62 4.62 4.62 4.62 13.09v503.58q0 7.7-5.39 13.09-4.62 4.62-12.32 4.62h-38.5zm368.35 0q-7.7 0-13.09-4.62-4.62-5.39-4.62-13.09V397.22H539.7q-7.7 0-13.09-4.62-4.62-5.39-4.62-13.09v-30.03q0-8.47 4.62-13.09Q532 331 539.7 331h369.6q8.47 0 13.09 5.39 4.62 4.62 4.62 13.09v30.03q0 7.7-5.39 13.09-4.62 4.62-12.32 4.62H761.46v455.07q0 7.7-5.39 13.09-5.39 4.62-13.09 4.62h-36.96zm-20.31 0q-7.7 0-13.09-4.62-4.62-5.39-4.62-13.09V397.22H519.39q-7.7 0-13.09-4.62-4.62-5.39-4.62-13.09v-30.03q0-8.47 4.62-13.09 5.39-5.39 13.09-5.39h369.6q8.47 0 13.09 5.39 4.62 4.62 4.62 13.09v30.03q0 7.7-5.39 13.09-4.62 4.62-12.32 4.62H741.15v455.07q0 7.7-5.39 13.09-5.39 4.62-13.09 4.62h-36.96z"/></svg>