<svg xmlns="http://www.w3.org/2000/svg" width="32" height="32" viewBox="0 0 256 256"><defs><linearGradient id="a"><stop offset="0" stop-color="#b565a7"/><stop offset="1" stop-color="#5f4b8b"/></linearGradient></defs><path d="M176 32H80a48 48 0 0 0-48 48v96a48 48 0 0 0 48 48h96a48 48 0 0 0 48-48V80a48 48 0 0 0-48-48zm-48 136a40 40 0 1 1 40-40 40 40 0 0 1-40 40z" fill="url(#a)" opacity=".25"/><path fill="#5f4b8b" d="M176 24H80a56.06 56.06 0 0 0-56 56v96a56.06 56.06 0 0 0 56 56h96a56.06 56.06 0 0 0 56-56V80a56.06 56.06 0 0 0-56-56zm40 152a40 40 0 0 1-40 40H80a40 40 0 0 1-40-40V80a40 40 0 0 1 40-40h96a40 40 0 0 1 40 40zm-88-96a48 48 0 1 0 48 48 48.05 48.05 0 0 0-48-48zm0 80a32 32 0 1 1 32-32 32 32 0 0 1-32 32zm64-84a12 12 0 1 1-12-12 12 12 0 0 1 12 12z"/><path fill="url(#a)" d="M176 24H80a56.06 56.06 0 0 0-56 56v96a56.06 56.06 0 0 0 56 56h96a56.06 56.06 0 0 0 56-56V80a56.06 56.06 0 0 0-56-56zm40 152a40 40 0 0 1-40 40H80a40 40 0 0 1-40-40V80a40 40 0 0 1 40-40h96a40 40 0 0 1 40 40zm-88-96a48 48 0 1 0 48 48 48.05 48.05 0 0 0-48-48zm0 80a32 32 0 1 1 32-32 32 32 0 0 1-32 32zm64-84a12 12 0 1 1-12-12 12 12 0 0 1 12 12z"/></svg>