<svg height="300" viewBox="0 0 1200 1200" width="300" xmlns="http://www.w3.org/2000/svg"><path d="m50 0h1100c27.65 0 50 22.35 50 50v1100c0 27.65-22.35 50-50 50h-1100c-27.65 0-50-22.35-50-50v-1100c0-27.65 22.35-50 50-50z" fill="none" stroke="#2e3440" stroke-linecap="round" stroke-linejoin="round" stroke-width="200"/><path d="m357.98 870q-7.7 0-12.32-4.62-4.62-5.39-4.62-13.09v-503.58q0-7.7 4.62-12.32 4.62-5.39 12.32-5.39h38.5q8.47 0 13.09 4.62 4.62 4.62 4.62 13.09v503.58q0 7.7-5.39 13.09-4.62 4.62-12.32 4.62zm-20.31 0q-7.7 0-12.32-4.62-4.62-5.39-4.62-13.09v-503.58q0-7.7 4.62-12.32 4.62-5.39 12.32-5.39h38.5q8.47 0 13.09 4.62 4.62 4.62 4.62 13.09v503.58q0 7.7-5.39 13.09-4.62 4.62-12.32 4.62zm368.35 0q-7.7 0-13.09-4.62-4.62-5.39-4.62-13.09v-455.07h-148.61q-7.7 0-13.09-4.62-4.62-5.39-4.62-13.09v-30.03q0-8.47 4.62-13.09 5.39-5.39 13.09-5.39h369.6q8.47 0 13.09 5.39 4.62 4.62 4.62 13.09v30.03q0 7.7-5.39 13.09-4.62 4.62-12.32 4.62h-147.84v455.07q0 7.7-5.39 13.09-5.39 4.62-13.09 4.62zm-20.31 0q-7.7 0-13.09-4.62-4.62-5.39-4.62-13.09v-455.07h-148.61q-7.7 0-13.09-4.62-4.62-5.39-4.62-13.09v-30.03q0-8.47 4.62-13.09 5.39-5.39 13.09-5.39h369.6q8.47 0 13.09 5.39 4.62 4.62 4.62 13.09v30.03q0 7.7-5.39 13.09-4.62 4.62-12.32 4.62h-147.84v455.07q0 7.7-5.39 13.09-5.39 4.62-13.09 4.62z" fill="#2e3440"/></svg>