<svg width="31" height="34" fill="none" xmlns="http://www.w3.org/2000/svg"><g filter="url(#filter0_d)"><path d="M26.148 20.063v-4.875c0-1.122-.885-2.032-1.977-2.032-1.093 0-1.978.91-1.978 2.031h-.395V13.97c0-1.122-.886-2.031-1.978-2.031s-1.977.909-1.977 2.03v1.22h-.396v-2.032c0-1.122-.885-2.031-1.977-2.031-1.093 0-1.978.91-1.978 2.031v2.031h-.395V5.031C13.097 3.91 12.21 3 11.119 3s-1.977.91-1.977 2.031v14.016l-1.565-2.21a1.944 1.944 0 0 0-2.763-.448c-.883.66-1.078 1.93-.436 2.837l6.328 8.938c.372.525.967.836 1.6.836h10.283c.917 0 1.714-.648 1.925-1.566l1.582-6.906c.035-.153.052-.309.052-.465z" fill="#d8dee9"/><path d="M26.148 20.063v-4.875c0-1.122-.885-2.032-1.977-2.032-1.093 0-1.978.91-1.978 2.031h-.395V13.97c0-1.122-.886-2.031-1.978-2.031s-1.977.909-1.977 2.03v1.22h-.396v-2.032c0-1.122-.885-2.031-1.977-2.031-1.093 0-1.978.91-1.978 2.031v2.031h-.395V5.031C13.097 3.91 12.21 3 11.119 3s-1.977.91-1.977 2.031v14.016l-1.565-2.21a1.944 1.944 0 0 0-2.763-.448c-.883.66-1.078 1.93-.436 2.837l6.328 8.938c.372.525.967.836 1.6.836h10.283c.917 0 1.714-.648 1.925-1.566l1.582-6.906c.035-.153.052-.309.052-.465z" stroke="#2e3440" stroke-width="2" stroke-linecap="round" stroke-linejoin="round"/></g><defs><filter id="filter0_d" x="0" y="0" width="30.148" height="34" filterUnits="userSpaceOnUse" color-interpolation-filters="sRGB"><feFlood flood-opacity="0" result="BackgroundImageFix"/><feColorMatrix in="SourceAlpha" values="0 0 0 0 0 0 0 0 0 0 0 0 0 0 0 0 0 0 127 0"/><feOffset dy="1"/><feGaussianBlur stdDeviation="1.5"/><feColorMatrix values="0 0 0 0 0 0 0 0 0 0 0 0 0 0 0 0 0 0 0.1 0"/><feBlend in2="BackgroundImageFix" result="effect1_dropShadow"/><feBlend in="SourceGraphic" in2="effect1_dropShadow" result="shape"/></filter></defs></svg>