<svg id="Layer_1" xmlns="http://www.w3.org/2000/svg" xmlns:xlink="http://www.w3.org/1999/xlink" width="363" height="363"><path fill="#FFF" d="M0 0H363V363H0z"/><g transform="translate(22 22)"><defs><linearGradient gradientTransform="rotate(90)" id="grad"><stop offset="5%" stop-color="#5F4B8B"/><stop offset="95%" stop-color="#B565A7"/></linearGradient><mask id="gmask"><path transform="translate(121) scale(.11)" fill="rgb(255, 255, 255)" d="M0 0H100V100H0z"/><path transform="translate(132) scale(.11)" fill="rgb(255, 255, 255)" d="M0 0H100V100H0z"/><path transform="translate(143) scale(.11)" fill="rgb(255, 255, 255)" d="M0 0H100V100H0z"/><path transform="translate(165) scale(.11)" fill="rgb(255, 255, 255)" d="M0 0H100V100H0z"/><path transform="translate(198) scale(.11)" fill="rgb(255, 255, 255)" d="M0 0H100V100H0z"/><path transform="translate(209) scale(.11)" fill="rgb(255, 255, 255)" d="M0 0H100V100H0z"/><path transform="matrix(.11 0 0 .11 110 11)" fill="rgb(255, 255, 255)" d="M0 0H100V100H0z"/><path transform="matrix(.11 0 0 .11 132 11)" fill="rgb(255, 255, 255)" d="M0 0H100V100H0z"/><path transform="matrix(.11 0 0 .11 143 11)" fill="rgb(255, 255, 255)" d="M0 0H100V100H0z"/><path transform="matrix(.11 0 0 .11 187 11)" fill="rgb(255, 255, 255)" d="M0 0H100V100H0z"/><path transform="matrix(.11 0 0 .11 220 11)" fill="rgb(255, 255, 255)" d="M0 0H100V100H0z"/><path transform="matrix(.11 0 0 .11 88 22)" fill="rgb(255, 255, 255)" d="M0 0H100V100H0z"/><path transform="matrix(.11 0 0 .11 143 22)" fill="rgb(255, 255, 255)" d="M0 0H100V100H0z"/><path transform="matrix(.11 0 0 .11 154 22)" fill="rgb(255, 255, 255)" d="M0 0H100V100H0z"/><path transform="matrix(.11 0 0 .11 165 22)" fill="rgb(255, 255, 255)" d="M0 0H100V100H0z"/><path transform="matrix(.11 0 0 .11 198 22)" fill="rgb(255, 255, 255)" d="M0 0H100V100H0z"/><path transform="matrix(.11 0 0 .11 220 22)" fill="rgb(255, 255, 255)" d="M0 0H100V100H0z"/><path transform="matrix(.11 0 0 .11 88 33)" fill="rgb(255, 255, 255)" d="M0 0H100V100H0z"/><path transform="matrix(.11 0 0 .11 110 33)" fill="rgb(255, 255, 255)" d="M0 0H100V100H0z"/><path transform="matrix(.11 0 0 .11 121 33)" fill="rgb(255, 255, 255)" d="M0 0H100V100H0z"/><path transform="matrix(.11 0 0 .11 143 33)" fill="rgb(255, 255, 255)" d="M0 0H100V100H0z"/><path transform="matrix(.11 0 0 .11 154 33)" fill="rgb(255, 255, 255)" d="M0 0H100V100H0z"/><path transform="matrix(.11 0 0 .11 176 33)" fill="rgb(255, 255, 255)" d="M0 0H100V100H0z"/><path transform="matrix(.11 0 0 .11 187 33)" fill="rgb(255, 255, 255)" d="M0 0H100V100H0z"/><path transform="matrix(.11 0 0 .11 209 33)" fill="rgb(255, 255, 255)" d="M0 0H100V100H0z"/><path transform="matrix(.11 0 0 .11 220 33)" fill="rgb(255, 255, 255)" d="M0 0H100V100H0z"/><path transform="matrix(.11 0 0 .11 99 44)" fill="rgb(255, 255, 255)" d="M0 0H100V100H0z"/><path transform="matrix(.11 0 0 .11 110 44)" fill="rgb(255, 255, 255)" d="M0 0H100V100H0z"/><path transform="matrix(.11 0 0 .11 121 44)" fill="rgb(255, 255, 255)" d="M0 0H100V100H0z"/><path transform="matrix(.11 0 0 .11 143 44)" fill="rgb(255, 255, 255)" d="M0 0H100V100H0z"/><path transform="matrix(.11 0 0 .11 165 44)" fill="rgb(255, 255, 255)" d="M0 0H100V100H0z"/><path transform="matrix(.11 0 0 .11 176 44)" fill="rgb(255, 255, 255)" d="M0 0H100V100H0z"/><path transform="matrix(.11 0 0 .11 187 44)" fill="rgb(255, 255, 255)" d="M0 0H100V100H0z"/><path transform="matrix(.11 0 0 .11 198 44)" fill="rgb(255, 255, 255)" d="M0 0H100V100H0z"/><path transform="matrix(.11 0 0 .11 209 44)" fill="rgb(255, 255, 255)" d="M0 0H100V100H0z"/><path transform="matrix(.11 0 0 .11 99 55)" fill="rgb(255, 255, 255)" d="M0 0H100V100H0z"/><path transform="matrix(.11 0 0 .11 110 55)" fill="rgb(255, 255, 255)" d="M0 0H100V100H0z"/><path transform="matrix(.11 0 0 .11 132 55)" fill="rgb(255, 255, 255)" d="M0 0H100V100H0z"/><path transform="matrix(.11 0 0 .11 143 55)" fill="rgb(255, 255, 255)" d="M0 0H100V100H0z"/><path transform="matrix(.11 0 0 .11 176 55)" fill="rgb(255, 255, 255)" d="M0 0H100V100H0z"/><path transform="matrix(.11 0 0 .11 187 55)" fill="rgb(255, 255, 255)" d="M0 0H100V100H0z"/><path transform="matrix(.11 0 0 .11 198 55)" fill="rgb(255, 255, 255)" d="M0 0H100V100H0z"/><path transform="matrix(.11 0 0 .11 220 55)" fill="rgb(255, 255, 255)" d="M0 0H100V100H0z"/><path transform="matrix(.11 0 0 .11 88 66)" fill="rgb(255, 255, 255)" d="M0 0H100V100H0z"/><path transform="matrix(.11 0 0 .11 110 66)" fill="rgb(255, 255, 255)" d="M0 0H100V100H0z"/><path transform="matrix(.11 0 0 .11 132 66)" fill="rgb(255, 255, 255)" d="M0 0H100V100H0z"/><path transform="matrix(.11 0 0 .11 154 66)" fill="rgb(255, 255, 255)" d="M0 0H100V100H0z"/><path transform="matrix(.11 0 0 .11 176 66)" fill="rgb(255, 255, 255)" d="M0 0H100V100H0z"/><path transform="matrix(.11 0 0 .11 198 66)" fill="rgb(255, 255, 255)" d="M0 0H100V100H0z"/><path transform="matrix(.11 0 0 .11 220 66)" fill="rgb(255, 255, 255)" d="M0 0H100V100H0z"/><path transform="matrix(.11 0 0 .11 99 77)" fill="rgb(255, 255, 255)" d="M0 0H100V100H0z"/><path transform="matrix(.11 0 0 .11 110 77)" fill="rgb(255, 255, 255)" d="M0 0H100V100H0z"/><path transform="matrix(.11 0 0 .11 121 77)" fill="rgb(255, 255, 255)" d="M0 0H100V100H0z"/><path transform="matrix(.11 0 0 .11 132 77)" fill="rgb(255, 255, 255)" d="M0 0H100V100H0z"/><path transform="matrix(.11 0 0 .11 33 88)" fill="rgb(255, 255, 255)" d="M0 0H100V100H0z"/><path transform="matrix(.11 0 0 .11 44 88)" fill="rgb(255, 255, 255)" d="M0 0H100V100H0z"/><path transform="matrix(.11 0 0 .11 66 88)" fill="rgb(255, 255, 255)" d="M0 0H100V100H0z"/><path transform="matrix(.11 0 0 .11 77 88)" fill="rgb(255, 255, 255)" d="M0 0H100V100H0z"/><path transform="matrix(.11 0 0 .11 99 88)" fill="rgb(255, 255, 255)" d="M0 0H100V100H0z"/><path transform="matrix(.11 0 0 .11 110 88)" fill="rgb(255, 255, 255)" d="M0 0H100V100H0z"/><path transform="matrix(.11 0 0 .11 132 88)" fill="rgb(255, 255, 255)" d="M0 0H100V100H0z"/><path transform="matrix(.11 0 0 .11 143 88)" fill="rgb(255, 255, 255)" d="M0 0H100V100H0z"/><path transform="matrix(.11 0 0 .11 165 88)" fill="rgb(255, 255, 255)" d="M0 0H100V100H0z"/><path transform="matrix(.11 0 0 .11 176 88)" fill="rgb(255, 255, 255)" d="M0 0H100V100H0z"/><path transform="matrix(.11 0 0 .11 198 88)" fill="rgb(255, 255, 255)" d="M0 0H100V100H0z"/><path transform="matrix(.11 0 0 .11 209 88)" fill="rgb(255, 255, 255)" d="M0 0H100V100H0z"/><path transform="matrix(.11 0 0 .11 220 88)" fill="rgb(255, 255, 255)" d="M0 0H100V100H0z"/><path transform="matrix(.11 0 0 .11 275 88)" fill="rgb(255, 255, 255)" d="M0 0H100V100H0z"/><path transform="matrix(.11 0 0 .11 286 88)" fill="rgb(255, 255, 255)" d="M0 0H100V100H0z"/><path transform="matrix(.11 0 0 .11 11 99)" fill="rgb(255, 255, 255)" d="M0 0H100V100H0z"/><path transform="matrix(.11 0 0 .11 22 99)" fill="rgb(255, 255, 255)" d="M0 0H100V100H0z"/><path transform="matrix(.11 0 0 .11 33 99)" fill="rgb(255, 255, 255)" d="M0 0H100V100H0z"/><path transform="matrix(.11 0 0 .11 55 99)" fill="rgb(255, 255, 255)" d="M0 0H100V100H0z"/><path transform="matrix(.11 0 0 .11 77 99)" fill="rgb(255, 255, 255)" d="M0 0H100V100H0z"/><path transform="matrix(.11 0 0 .11 88 99)" fill="rgb(255, 255, 255)" d="M0 0H100V100H0z"/><path transform="matrix(.11 0 0 .11 110 99)" fill="rgb(255, 255, 255)" d="M0 0H100V100H0z"/><path transform="matrix(.11 0 0 .11 165 99)" fill="rgb(255, 255, 255)" d="M0 0H100V100H0z"/><path transform="matrix(.11 0 0 .11 176 99)" fill="rgb(255, 255, 255)" d="M0 0H100V100H0z"/><path transform="matrix(.11 0 0 .11 220 99)" fill="rgb(255, 255, 255)" d="M0 0H100V100H0z"/><path transform="matrix(.11 0 0 .11 231 99)" fill="rgb(255, 255, 255)" d="M0 0H100V100H0z"/><path transform="matrix(.11 0 0 .11 253 99)" fill="rgb(255, 255, 255)" d="M0 0H100V100H0z"/><path transform="matrix(.11 0 0 .11 264 99)" fill="rgb(255, 255, 255)" d="M0 0H100V100H0z"/><path transform="matrix(.11 0 0 .11 275 99)" fill="rgb(255, 255, 255)" d="M0 0H100V100H0z"/><path transform="matrix(.11 0 0 .11 297 99)" fill="rgb(255, 255, 255)" d="M0 0H100V100H0z"/><path transform="matrix(.11 0 0 .11 33 110)" fill="rgb(255, 255, 255)" d="M0 0H100V100H0z"/><path transform="matrix(.11 0 0 .11 44 110)" fill="rgb(255, 255, 255)" d="M0 0H100V100H0z"/><path transform="matrix(.11 0 0 .11 55 110)" fill="rgb(255, 255, 255)" d="M0 0H100V100H0z"/><path transform="matrix(.11 0 0 .11 66 110)" fill="rgb(255, 255, 255)" d="M0 0H100V100H0z"/><path transform="matrix(.11 0 0 .11 77 110)" fill="rgb(255, 255, 255)" d="M0 0H100V100H0z"/><path transform="matrix(.11 0 0 .11 110 110)" fill="rgb(255, 255, 255)" d="M0 0H100V100H0z"/><path transform="matrix(.11 0 0 .11 132 110)" fill="rgb(255, 255, 255)" d="M0 0H100V100H0z"/><path transform="matrix(.11 0 0 .11 187 110)" fill="rgb(255, 255, 255)" d="M0 0H100V100H0z"/><path transform="matrix(.11 0 0 .11 198 110)" fill="rgb(255, 255, 255)" d="M0 0H100V100H0z"/><path transform="matrix(.11 0 0 .11 231 110)" fill="rgb(255, 255, 255)" d="M0 0H100V100H0z"/><path transform="matrix(.11 0 0 .11 242 110)" fill="rgb(255, 255, 255)" d="M0 0H100V100H0z"/><path transform="matrix(.11 0 0 .11 253 110)" fill="rgb(255, 255, 255)" d="M0 0H100V100H0z"/><path transform="matrix(.11 0 0 .11 11 121)" fill="rgb(255, 255, 255)" d="M0 0H100V100H0z"/><path transform="matrix(.11 0 0 .11 33 121)" fill="rgb(255, 255, 255)" d="M0 0H100V100H0z"/><path transform="matrix(.11 0 0 .11 44 121)" fill="rgb(255, 255, 255)" d="M0 0H100V100H0z"/><path transform="matrix(.11 0 0 .11 55 121)" fill="rgb(255, 255, 255)" d="M0 0H100V100H0z"/><path transform="matrix(.11 0 0 .11 88 121)" fill="rgb(255, 255, 255)" d="M0 0H100V100H0z"/><path transform="matrix(.11 0 0 .11 99 121)" fill="rgb(255, 255, 255)" d="M0 0H100V100H0z"/><path transform="matrix(.11 0 0 .11 110 121)" fill="rgb(255, 255, 255)" d="M0 0H100V100H0z"/><path transform="matrix(.11 0 0 .11 165 121)" fill="rgb(255, 255, 255)" d="M0 0H100V100H0z"/><path transform="matrix(.11 0 0 .11 176 121)" fill="rgb(255, 255, 255)" d="M0 0H100V100H0z"/><path transform="matrix(.11 0 0 .11 198 121)" fill="rgb(255, 255, 255)" d="M0 0H100V100H0z"/><path transform="matrix(.11 0 0 .11 275 121)" fill="rgb(255, 255, 255)" d="M0 0H100V100H0z"/><path transform="matrix(.11 0 0 .11 308 121)" fill="rgb(255, 255, 255)" d="M0 0H100V100H0z"/><path transform="matrix(.11 0 0 .11 22 132)" fill="rgb(255, 255, 255)" d="M0 0H100V100H0z"/><path transform="matrix(.11 0 0 .11 33 132)" fill="rgb(255, 255, 255)" d="M0 0H100V100H0z"/><path transform="matrix(.11 0 0 .11 44 132)" fill="rgb(255, 255, 255)" d="M0 0H100V100H0z"/><path transform="matrix(.11 0 0 .11 66 132)" fill="rgb(255, 255, 255)" d="M0 0H100V100H0z"/><path transform="matrix(.11 0 0 .11 110 132)" fill="rgb(255, 255, 255)" d="M0 0H100V100H0z"/><path transform="matrix(.11 0 0 .11 132 132)" fill="rgb(255, 255, 255)" d="M0 0H100V100H0z"/><path transform="matrix(.11 0 0 .11 143 132)" fill="rgb(255, 255, 255)" d="M0 0H100V100H0z"/><path transform="matrix(.11 0 0 .11 165 132)" fill="rgb(255, 255, 255)" d="M0 0H100V100H0z"/><path transform="matrix(.11 0 0 .11 209 132)" fill="rgb(255, 255, 255)" d="M0 0H100V100H0z"/><path transform="matrix(.11 0 0 .11 220 132)" fill="rgb(255, 255, 255)" d="M0 0H100V100H0z"/><path transform="matrix(.11 0 0 .11 231 132)" fill="rgb(255, 255, 255)" d="M0 0H100V100H0z"/><path transform="matrix(.11 0 0 .11 242 132)" fill="rgb(255, 255, 255)" d="M0 0H100V100H0z"/><path transform="matrix(.11 0 0 .11 275 132)" fill="rgb(255, 255, 255)" d="M0 0H100V100H0z"/><path transform="matrix(.11 0 0 .11 297 132)" fill="rgb(255, 255, 255)" d="M0 0H100V100H0z"/><path transform="matrix(.11 0 0 .11 55 143)" fill="rgb(255, 255, 255)" d="M0 0H100V100H0z"/><path transform="matrix(.11 0 0 .11 77 143)" fill="rgb(255, 255, 255)" d="M0 0H100V100H0z"/><path transform="matrix(.11 0 0 .11 110 143)" fill="rgb(255, 255, 255)" d="M0 0H100V100H0z"/><path transform="matrix(.11 0 0 .11 121 143)" fill="rgb(255, 255, 255)" d="M0 0H100V100H0z"/><path transform="matrix(.11 0 0 .11 154 143)" fill="rgb(255, 255, 255)" d="M0 0H100V100H0z"/><path transform="matrix(.11 0 0 .11 187 143)" fill="rgb(255, 255, 255)" d="M0 0H100V100H0z"/><path transform="matrix(.11 0 0 .11 198 143)" fill="rgb(255, 255, 255)" d="M0 0H100V100H0z"/><path transform="matrix(.11 0 0 .11 242 143)" fill="rgb(255, 255, 255)" d="M0 0H100V100H0z"/><path transform="matrix(.11 0 0 .11 264 143)" fill="rgb(255, 255, 255)" d="M0 0H100V100H0z"/><path transform="matrix(.11 0 0 .11 286 143)" fill="rgb(255, 255, 255)" d="M0 0H100V100H0z"/><path transform="matrix(.11 0 0 .11 308 143)" fill="rgb(255, 255, 255)" d="M0 0H100V100H0z"/><path transform="matrix(.11 0 0 .11 22 154)" fill="rgb(255, 255, 255)" d="M0 0H100V100H0z"/><path transform="matrix(.11 0 0 .11 55 154)" fill="rgb(255, 255, 255)" d="M0 0H100V100H0z"/><path transform="matrix(.11 0 0 .11 66 154)" fill="rgb(255, 255, 255)" d="M0 0H100V100H0z"/><path transform="matrix(.11 0 0 .11 88 154)" fill="rgb(255, 255, 255)" d="M0 0H100V100H0z"/><path transform="matrix(.11 0 0 .11 99 154)" fill="rgb(255, 255, 255)" d="M0 0H100V100H0z"/><path transform="matrix(.11 0 0 .11 143 154)" fill="rgb(255, 255, 255)" d="M0 0H100V100H0z"/><path transform="matrix(.11 0 0 .11 154 154)" fill="rgb(255, 255, 255)" d="M0 0H100V100H0z"/><path transform="matrix(.11 0 0 .11 165 154)" fill="rgb(255, 255, 255)" d="M0 0H100V100H0z"/><path transform="matrix(.11 0 0 .11 176 154)" fill="rgb(255, 255, 255)" d="M0 0H100V100H0z"/><path transform="matrix(.11 0 0 .11 209 154)" fill="rgb(255, 255, 255)" d="M0 0H100V100H0z"/><path transform="matrix(.11 0 0 .11 220 154)" fill="rgb(255, 255, 255)" d="M0 0H100V100H0z"/><path transform="matrix(.11 0 0 .11 231 154)" fill="rgb(255, 255, 255)" d="M0 0H100V100H0z"/><path transform="matrix(.11 0 0 .11 242 154)" fill="rgb(255, 255, 255)" d="M0 0H100V100H0z"/><path transform="matrix(.11 0 0 .11 253 154)" fill="rgb(255, 255, 255)" d="M0 0H100V100H0z"/><path transform="matrix(.11 0 0 .11 275 154)" fill="rgb(255, 255, 255)" d="M0 0H100V100H0z"/><path transform="matrix(.11 0 0 .11 297 154)" fill="rgb(255, 255, 255)" d="M0 0H100V100H0z"/><path transform="matrix(.11 0 0 .11 308 154)" fill="rgb(255, 255, 255)" d="M0 0H100V100H0z"/><path transform="matrix(.11 0 0 .11 22 165)" fill="rgb(255, 255, 255)" d="M0 0H100V100H0z"/><path transform="matrix(.11 0 0 .11 33 165)" fill="rgb(255, 255, 255)" d="M0 0H100V100H0z"/><path transform="matrix(.11 0 0 .11 44 165)" fill="rgb(255, 255, 255)" d="M0 0H100V100H0z"/><path transform="matrix(.11 0 0 .11 77 165)" fill="rgb(255, 255, 255)" d="M0 0H100V100H0z"/><path transform="matrix(.11 0 0 .11 110 165)" fill="rgb(255, 255, 255)" d="M0 0H100V100H0z"/><path transform="matrix(.11 0 0 .11 132 165)" fill="rgb(255, 255, 255)" d="M0 0H100V100H0z"/><path transform="matrix(.11 0 0 .11 143 165)" fill="rgb(255, 255, 255)" d="M0 0H100V100H0z"/><path transform="matrix(.11 0 0 .11 154 165)" fill="rgb(255, 255, 255)" d="M0 0H100V100H0z"/><path transform="matrix(.11 0 0 .11 165 165)" fill="rgb(255, 255, 255)" d="M0 0H100V100H0z"/><path transform="matrix(.11 0 0 .11 198 165)" fill="rgb(255, 255, 255)" d="M0 0H100V100H0z"/><path transform="matrix(.11 0 0 .11 220 165)" fill="rgb(255, 255, 255)" d="M0 0H100V100H0z"/><path transform="matrix(.11 0 0 .11 242 165)" fill="rgb(255, 255, 255)" d="M0 0H100V100H0z"/><path transform="matrix(.11 0 0 .11 264 165)" fill="rgb(255, 255, 255)" d="M0 0H100V100H0z"/><path transform="matrix(.11 0 0 .11 275 165)" fill="rgb(255, 255, 255)" d="M0 0H100V100H0z"/><path transform="matrix(.11 0 0 .11 286 165)" fill="rgb(255, 255, 255)" d="M0 0H100V100H0z"/><path transform="matrix(.11 0 0 .11 308 165)" fill="rgb(255, 255, 255)" d="M0 0H100V100H0z"/><path transform="matrix(.11 0 0 .11 0 176)" fill="rgb(255, 255, 255)" d="M0 0H100V100H0z"/><path transform="matrix(.11 0 0 .11 22 176)" fill="rgb(255, 255, 255)" d="M0 0H100V100H0z"/><path transform="matrix(.11 0 0 .11 33 176)" fill="rgb(255, 255, 255)" d="M0 0H100V100H0z"/><path transform="matrix(.11 0 0 .11 44 176)" fill="rgb(255, 255, 255)" d="M0 0H100V100H0z"/><path transform="matrix(.11 0 0 .11 55 176)" fill="rgb(255, 255, 255)" d="M0 0H100V100H0z"/><path transform="matrix(.11 0 0 .11 66 176)" fill="rgb(255, 255, 255)" d="M0 0H100V100H0z"/><path transform="matrix(.11 0 0 .11 77 176)" fill="rgb(255, 255, 255)" d="M0 0H100V100H0z"/><path transform="matrix(.11 0 0 .11 88 176)" fill="rgb(255, 255, 255)" d="M0 0H100V100H0z"/><path transform="matrix(.11 0 0 .11 121 176)" fill="rgb(255, 255, 255)" d="M0 0H100V100H0z"/><path transform="matrix(.11 0 0 .11 176 176)" fill="rgb(255, 255, 255)" d="M0 0H100V100H0z"/><path transform="matrix(.11 0 0 .11 187 176)" fill="rgb(255, 255, 255)" d="M0 0H100V100H0z"/><path transform="matrix(.11 0 0 .11 198 176)" fill="rgb(255, 255, 255)" d="M0 0H100V100H0z"/><path transform="matrix(.11 0 0 .11 209 176)" fill="rgb(255, 255, 255)" d="M0 0H100V100H0z"/><path transform="matrix(.11 0 0 .11 220 176)" fill="rgb(255, 255, 255)" d="M0 0H100V100H0z"/><path transform="matrix(.11 0 0 .11 253 176)" fill="rgb(255, 255, 255)" d="M0 0H100V100H0z"/><path transform="matrix(.11 0 0 .11 275 176)" fill="rgb(255, 255, 255)" d="M0 0H100V100H0z"/><path transform="matrix(.11 0 0 .11 0 187)" fill="rgb(255, 255, 255)" d="M0 0H100V100H0z"/><path transform="matrix(.11 0 0 .11 22 187)" fill="rgb(255, 255, 255)" d="M0 0H100V100H0z"/><path transform="matrix(.11 0 0 .11 99 187)" fill="rgb(255, 255, 255)" d="M0 0H100V100H0z"/><path transform="matrix(.11 0 0 .11 110 187)" fill="rgb(255, 255, 255)" d="M0 0H100V100H0z"/><path transform="matrix(.11 0 0 .11 143 187)" fill="rgb(255, 255, 255)" d="M0 0H100V100H0z"/><path transform="matrix(.11 0 0 .11 154 187)" fill="rgb(255, 255, 255)" d="M0 0H100V100H0z"/><path transform="matrix(.11 0 0 .11 176 187)" fill="rgb(255, 255, 255)" d="M0 0H100V100H0z"/><path transform="matrix(.11 0 0 .11 198 187)" fill="rgb(255, 255, 255)" d="M0 0H100V100H0z"/><path transform="matrix(.11 0 0 .11 220 187)" fill="rgb(255, 255, 255)" d="M0 0H100V100H0z"/><path transform="matrix(.11 0 0 .11 253 187)" fill="rgb(255, 255, 255)" d="M0 0H100V100H0z"/><path transform="matrix(.11 0 0 .11 264 187)" fill="rgb(255, 255, 255)" d="M0 0H100V100H0z"/><path transform="matrix(.11 0 0 .11 0 198)" fill="rgb(255, 255, 255)" d="M0 0H100V100H0z"/><path transform="matrix(.11 0 0 .11 11 198)" fill="rgb(255, 255, 255)" d="M0 0H100V100H0z"/><path transform="matrix(.11 0 0 .11 33 198)" fill="rgb(255, 255, 255)" d="M0 0H100V100H0z"/><path transform="matrix(.11 0 0 .11 55 198)" fill="rgb(255, 255, 255)" d="M0 0H100V100H0z"/><path transform="matrix(.11 0 0 .11 66 198)" fill="rgb(255, 255, 255)" d="M0 0H100V100H0z"/><path transform="matrix(.11 0 0 .11 77 198)" fill="rgb(255, 255, 255)" d="M0 0H100V100H0z"/><path transform="matrix(.11 0 0 .11 88 198)" fill="rgb(255, 255, 255)" d="M0 0H100V100H0z"/><path transform="matrix(.11 0 0 .11 143 198)" fill="rgb(255, 255, 255)" d="M0 0H100V100H0z"/><path transform="matrix(.11 0 0 .11 154 198)" fill="rgb(255, 255, 255)" d="M0 0H100V100H0z"/><path transform="matrix(.11 0 0 .11 165 198)" fill="rgb(255, 255, 255)" d="M0 0H100V100H0z"/><path transform="matrix(.11 0 0 .11 176 198)" fill="rgb(255, 255, 255)" d="M0 0H100V100H0z"/><path transform="matrix(.11 0 0 .11 187 198)" fill="rgb(255, 255, 255)" d="M0 0H100V100H0z"/><path transform="matrix(.11 0 0 .11 220 198)" fill="rgb(255, 255, 255)" d="M0 0H100V100H0z"/><path transform="matrix(.11 0 0 .11 264 198)" fill="rgb(255, 255, 255)" d="M0 0H100V100H0z"/><path transform="matrix(.11 0 0 .11 308 198)" fill="rgb(255, 255, 255)" d="M0 0H100V100H0z"/><path transform="matrix(.11 0 0 .11 0 209)" fill="rgb(255, 255, 255)" d="M0 0H100V100H0z"/><path transform="matrix(.11 0 0 .11 11 209)" fill="rgb(255, 255, 255)" d="M0 0H100V100H0z"/><path transform="matrix(.11 0 0 .11 88 209)" fill="rgb(255, 255, 255)" d="M0 0H100V100H0z"/><path transform="matrix(.11 0 0 .11 99 209)" fill="rgb(255, 255, 255)" d="M0 0H100V100H0z"/><path transform="matrix(.11 0 0 .11 110 209)" fill="rgb(255, 255, 255)" d="M0 0H100V100H0z"/><path transform="matrix(.11 0 0 .11 121 209)" fill="rgb(255, 255, 255)" d="M0 0H100V100H0z"/><path transform="matrix(.11 0 0 .11 165 209)" fill="rgb(255, 255, 255)" d="M0 0H100V100H0z"/><path transform="matrix(.11 0 0 .11 187 209)" fill="rgb(255, 255, 255)" d="M0 0H100V100H0z"/><path transform="matrix(.11 0 0 .11 198 209)" fill="rgb(255, 255, 255)" d="M0 0H100V100H0z"/><path transform="matrix(.11 0 0 .11 231 209)" fill="rgb(255, 255, 255)" d="M0 0H100V100H0z"/><path transform="matrix(.11 0 0 .11 242 209)" fill="rgb(255, 255, 255)" d="M0 0H100V100H0z"/><path transform="matrix(.11 0 0 .11 253 209)" fill="rgb(255, 255, 255)" d="M0 0H100V100H0z"/><path transform="matrix(.11 0 0 .11 286 209)" fill="rgb(255, 255, 255)" d="M0 0H100V100H0z"/><path transform="matrix(.11 0 0 .11 0 220)" fill="rgb(255, 255, 255)" d="M0 0H100V100H0z"/><path transform="matrix(.11 0 0 .11 11 220)" fill="rgb(255, 255, 255)" d="M0 0H100V100H0z"/><path transform="matrix(.11 0 0 .11 44 220)" fill="rgb(255, 255, 255)" d="M0 0H100V100H0z"/><path transform="matrix(.11 0 0 .11 55 220)" fill="rgb(255, 255, 255)" d="M0 0H100V100H0z"/><path transform="matrix(.11 0 0 .11 66 220)" fill="rgb(255, 255, 255)" d="M0 0H100V100H0z"/><path transform="matrix(.11 0 0 .11 77 220)" fill="rgb(255, 255, 255)" d="M0 0H100V100H0z"/><path transform="matrix(.11 0 0 .11 88 220)" fill="rgb(255, 255, 255)" d="M0 0H100V100H0z"/><path transform="matrix(.11 0 0 .11 99 220)" fill="rgb(255, 255, 255)" d="M0 0H100V100H0z"/><path transform="matrix(.11 0 0 .11 110 220)" fill="rgb(255, 255, 255)" d="M0 0H100V100H0z"/><path transform="matrix(.11 0 0 .11 132 220)" fill="rgb(255, 255, 255)" d="M0 0H100V100H0z"/><path transform="matrix(.11 0 0 .11 154 220)" fill="rgb(255, 255, 255)" d="M0 0H100V100H0z"/><path transform="matrix(.11 0 0 .11 165 220)" fill="rgb(255, 255, 255)" d="M0 0H100V100H0z"/><path transform="matrix(.11 0 0 .11 187 220)" fill="rgb(255, 255, 255)" d="M0 0H100V100H0z"/><path transform="matrix(.11 0 0 .11 220 220)" fill="rgb(255, 255, 255)" d="M0 0H100V100H0z"/><path transform="matrix(.11 0 0 .11 231 220)" fill="rgb(255, 255, 255)" d="M0 0H100V100H0z"/><path transform="matrix(.11 0 0 .11 242 220)" fill="rgb(255, 255, 255)" d="M0 0H100V100H0z"/><path transform="matrix(.11 0 0 .11 253 220)" fill="rgb(255, 255, 255)" d="M0 0H100V100H0z"/><path transform="matrix(.11 0 0 .11 264 220)" fill="rgb(255, 255, 255)" d="M0 0H100V100H0z"/><path transform="matrix(.11 0 0 .11 275 220)" fill="rgb(255, 255, 255)" d="M0 0H100V100H0z"/><path transform="matrix(.11 0 0 .11 286 220)" fill="rgb(255, 255, 255)" d="M0 0H100V100H0z"/><path transform="matrix(.11 0 0 .11 308 220)" fill="rgb(255, 255, 255)" d="M0 0H100V100H0z"/><path transform="matrix(.11 0 0 .11 88 231)" fill="rgb(255, 255, 255)" d="M0 0H100V100H0z"/><path transform="matrix(.11 0 0 .11 143 231)" fill="rgb(255, 255, 255)" d="M0 0H100V100H0z"/><path transform="matrix(.11 0 0 .11 165 231)" fill="rgb(255, 255, 255)" d="M0 0H100V100H0z"/><path transform="matrix(.11 0 0 .11 187 231)" fill="rgb(255, 255, 255)" d="M0 0H100V100H0z"/><path transform="matrix(.11 0 0 .11 220 231)" fill="rgb(255, 255, 255)" d="M0 0H100V100H0z"/><path transform="matrix(.11 0 0 .11 264 231)" fill="rgb(255, 255, 255)" d="M0 0H100V100H0z"/><path transform="matrix(.11 0 0 .11 275 231)" fill="rgb(255, 255, 255)" d="M0 0H100V100H0z"/><path transform="matrix(.11 0 0 .11 286 231)" fill="rgb(255, 255, 255)" d="M0 0H100V100H0z"/><path transform="matrix(.11 0 0 .11 297 231)" fill="rgb(255, 255, 255)" d="M0 0H100V100H0z"/><path transform="matrix(.11 0 0 .11 88 242)" fill="rgb(255, 255, 255)" d="M0 0H100V100H0z"/><path transform="matrix(.11 0 0 .11 121 242)" fill="rgb(255, 255, 255)" d="M0 0H100V100H0z"/><path transform="matrix(.11 0 0 .11 132 242)" fill="rgb(255, 255, 255)" d="M0 0H100V100H0z"/><path transform="matrix(.11 0 0 .11 143 242)" fill="rgb(255, 255, 255)" d="M0 0H100V100H0z"/><path transform="matrix(.11 0 0 .11 154 242)" fill="rgb(255, 255, 255)" d="M0 0H100V100H0z"/><path transform="matrix(.11 0 0 .11 165 242)" fill="rgb(255, 255, 255)" d="M0 0H100V100H0z"/><path transform="matrix(.11 0 0 .11 187 242)" fill="rgb(255, 255, 255)" d="M0 0H100V100H0z"/><path transform="matrix(.11 0 0 .11 198 242)" fill="rgb(255, 255, 255)" d="M0 0H100V100H0z"/><path transform="matrix(.11 0 0 .11 209 242)" fill="rgb(255, 255, 255)" d="M0 0H100V100H0z"/><path transform="matrix(.11 0 0 .11 220 242)" fill="rgb(255, 255, 255)" d="M0 0H100V100H0z"/><path transform="matrix(.11 0 0 .11 242 242)" fill="rgb(255, 255, 255)" d="M0 0H100V100H0z"/><path transform="matrix(.11 0 0 .11 264 242)" fill="rgb(255, 255, 255)" d="M0 0H100V100H0z"/><path transform="matrix(.11 0 0 .11 286 242)" fill="rgb(255, 255, 255)" d="M0 0H100V100H0z"/><path transform="matrix(.11 0 0 .11 110 253)" fill="rgb(255, 255, 255)" d="M0 0H100V100H0z"/><path transform="matrix(.11 0 0 .11 121 253)" fill="rgb(255, 255, 255)" d="M0 0H100V100H0z"/><path transform="matrix(.11 0 0 .11 143 253)" fill="rgb(255, 255, 255)" d="M0 0H100V100H0z"/><path transform="matrix(.11 0 0 .11 154 253)" fill="rgb(255, 255, 255)" d="M0 0H100V100H0z"/><path transform="matrix(.11 0 0 .11 198 253)" fill="rgb(255, 255, 255)" d="M0 0H100V100H0z"/><path transform="matrix(.11 0 0 .11 209 253)" fill="rgb(255, 255, 255)" d="M0 0H100V100H0z"/><path transform="matrix(.11 0 0 .11 220 253)" fill="rgb(255, 255, 255)" d="M0 0H100V100H0z"/><path transform="matrix(.11 0 0 .11 264 253)" fill="rgb(255, 255, 255)" d="M0 0H100V100H0z"/><path transform="matrix(.11 0 0 .11 275 253)" fill="rgb(255, 255, 255)" d="M0 0H100V100H0z"/><path transform="matrix(.11 0 0 .11 297 253)" fill="rgb(255, 255, 255)" d="M0 0H100V100H0z"/><path transform="matrix(.11 0 0 .11 308 253)" fill="rgb(255, 255, 255)" d="M0 0H100V100H0z"/><path transform="matrix(.11 0 0 .11 88 264)" fill="rgb(255, 255, 255)" d="M0 0H100V100H0z"/><path transform="matrix(.11 0 0 .11 143 264)" fill="rgb(255, 255, 255)" d="M0 0H100V100H0z"/><path transform="matrix(.11 0 0 .11 176 264)" fill="rgb(255, 255, 255)" d="M0 0H100V100H0z"/><path transform="matrix(.11 0 0 .11 187 264)" fill="rgb(255, 255, 255)" d="M0 0H100V100H0z"/><path transform="matrix(.11 0 0 .11 209 264)" fill="rgb(255, 255, 255)" d="M0 0H100V100H0z"/><path transform="matrix(.11 0 0 .11 220 264)" fill="rgb(255, 255, 255)" d="M0 0H100V100H0z"/><path transform="matrix(.11 0 0 .11 231 264)" fill="rgb(255, 255, 255)" d="M0 0H100V100H0z"/><path transform="matrix(.11 0 0 .11 242 264)" fill="rgb(255, 255, 255)" d="M0 0H100V100H0z"/><path transform="matrix(.11 0 0 .11 253 264)" fill="rgb(255, 255, 255)" d="M0 0H100V100H0z"/><path transform="matrix(.11 0 0 .11 264 264)" fill="rgb(255, 255, 255)" d="M0 0H100V100H0z"/><path transform="matrix(.11 0 0 .11 308 264)" fill="rgb(255, 255, 255)" d="M0 0H100V100H0z"/><path transform="matrix(.11 0 0 .11 88 275)" fill="rgb(255, 255, 255)" d="M0 0H100V100H0z"/><path transform="matrix(.11 0 0 .11 99 275)" fill="rgb(255, 255, 255)" d="M0 0H100V100H0z"/><path transform="matrix(.11 0 0 .11 121 275)" fill="rgb(255, 255, 255)" d="M0 0H100V100H0z"/><path transform="matrix(.11 0 0 .11 143 275)" fill="rgb(255, 255, 255)" d="M0 0H100V100H0z"/><path transform="matrix(.11 0 0 .11 154 275)" fill="rgb(255, 255, 255)" d="M0 0H100V100H0z"/><path transform="matrix(.11 0 0 .11 176 275)" fill="rgb(255, 255, 255)" d="M0 0H100V100H0z"/><path transform="matrix(.11 0 0 .11 198 275)" fill="rgb(255, 255, 255)" d="M0 0H100V100H0z"/><path transform="matrix(.11 0 0 .11 253 275)" fill="rgb(255, 255, 255)" d="M0 0H100V100H0z"/><path transform="matrix(.11 0 0 .11 297 275)" fill="rgb(255, 255, 255)" d="M0 0H100V100H0z"/><path transform="matrix(.11 0 0 .11 99 286)" fill="rgb(255, 255, 255)" d="M0 0H100V100H0z"/><path transform="matrix(.11 0 0 .11 110 286)" fill="rgb(255, 255, 255)" d="M0 0H100V100H0z"/><path transform="matrix(.11 0 0 .11 121 286)" fill="rgb(255, 255, 255)" d="M0 0H100V100H0z"/><path transform="matrix(.11 0 0 .11 143 286)" fill="rgb(255, 255, 255)" d="M0 0H100V100H0z"/><path transform="matrix(.11 0 0 .11 176 286)" fill="rgb(255, 255, 255)" d="M0 0H100V100H0z"/><path transform="matrix(.11 0 0 .11 220 286)" fill="rgb(255, 255, 255)" d="M0 0H100V100H0z"/><path transform="matrix(.11 0 0 .11 231 286)" fill="rgb(255, 255, 255)" d="M0 0H100V100H0z"/><path transform="matrix(.11 0 0 .11 253 286)" fill="rgb(255, 255, 255)" d="M0 0H100V100H0z"/><path transform="matrix(.11 0 0 .11 264 286)" fill="rgb(255, 255, 255)" d="M0 0H100V100H0z"/><path transform="matrix(.11 0 0 .11 286 286)" fill="rgb(255, 255, 255)" d="M0 0H100V100H0z"/><path transform="matrix(.11 0 0 .11 297 286)" fill="rgb(255, 255, 255)" d="M0 0H100V100H0z"/><path transform="matrix(.11 0 0 .11 308 286)" fill="rgb(255, 255, 255)" d="M0 0H100V100H0z"/><path transform="matrix(.11 0 0 .11 99 297)" fill="rgb(255, 255, 255)" d="M0 0H100V100H0z"/><path transform="matrix(.11 0 0 .11 143 297)" fill="rgb(255, 255, 255)" d="M0 0H100V100H0z"/><path transform="matrix(.11 0 0 .11 220 297)" fill="rgb(255, 255, 255)" d="M0 0H100V100H0z"/><path transform="matrix(.11 0 0 .11 231 297)" fill="rgb(255, 255, 255)" d="M0 0H100V100H0z"/><path transform="matrix(.11 0 0 .11 264 297)" fill="rgb(255, 255, 255)" d="M0 0H100V100H0z"/><path transform="matrix(.11 0 0 .11 275 297)" fill="rgb(255, 255, 255)" d="M0 0H100V100H0z"/><path transform="matrix(.11 0 0 .11 286 297)" fill="rgb(255, 255, 255)" d="M0 0H100V100H0z"/><path transform="matrix(.11 0 0 .11 308 297)" fill="rgb(255, 255, 255)" d="M0 0H100V100H0z"/><path transform="matrix(.11 0 0 .11 110 308)" fill="rgb(255, 255, 255)" d="M0 0H100V100H0z"/><path transform="matrix(.11 0 0 .11 143 308)" fill="rgb(255, 255, 255)" d="M0 0H100V100H0z"/><path transform="matrix(.11 0 0 .11 176 308)" fill="rgb(255, 255, 255)" d="M0 0H100V100H0z"/><path transform="matrix(.11 0 0 .11 198 308)" fill="rgb(255, 255, 255)" d="M0 0H100V100H0z"/><path transform="matrix(.11 0 0 .11 220 308)" fill="rgb(255, 255, 255)" d="M0 0H100V100H0z"/><path transform="matrix(.11 0 0 .11 231 308)" fill="rgb(255, 255, 255)" d="M0 0H100V100H0z"/><path transform="matrix(.11 0 0 .11 253 308)" fill="rgb(255, 255, 255)" d="M0 0H100V100H0z"/><path transform="matrix(.11 0 0 .11 264 308)" fill="rgb(255, 255, 255)" d="M0 0H100V100H0z"/></mask></defs><path fill="url(#grad)" mask="url(#gmask)" d="M0 0H319V319H0z"/><g transform="scale(.77)" fill="rgb(95, 75, 139)"><path fill="none" d="M15 15H85V85H15z"/><path d="M85 0H0v100h100V0H85zm0 85H15V15h70v70z"/></g><g transform="translate(242) scale(.77)" fill="rgb(95, 75, 139)"><path fill="none" d="M15 15H85V85H15z"/><path d="M85 0H0v100h100V0H85zm0 85H15V15h70v70z"/></g><g transform="matrix(.77 0 0 .77 0 242)" fill="rgb(95, 75, 139)"><path fill="none" d="M15 15H85V85H15z"/><path d="M85 0H0v100h100V0H85zm0 85H15V15h70v70z"/></g><path transform="matrix(.33 0 0 .33 22 22)" fill="rgb(181, 101, 167)" d="M0 0H100V100H0z"/><path transform="matrix(.33 0 0 .33 264 22)" fill="rgb(181, 101, 167)" d="M0 0H100V100H0z"/><path transform="matrix(.33 0 0 .33 22 264)" fill="rgb(181, 101, 167)" d="M0 0H100V100H0z"/><g><svg xmlns="http://www.w3.org/2000/svg" viewBox="0 0 1200 1200" width="300" height="300"><defs><linearGradient id="gradient-default"><stop offset="0" stop-color="#b565a7"/><stop offset="1" stop-color="#5f4b8b"/></linearGradient><linearGradient id="gradient-alt"><stop offset="0" stop-color="#4a9a58"/><stop offset="1" stop-color="#a0b474"/></linearGradient></defs><style>.frame{fill:#fff;stroke:url(#gradient-default);stroke-linecap:round;stroke-linejoin:round;stroke-width:200}.letters{fill:#2e3440}@media (prefers-color-scheme:dark){.frame{fill:#2e3440;stroke:url(#gradient-alt)}.letters{fill:#fff}}</style><path class="frame" d="M50 0h1100c27.65 0 50 22.35 50 50v1100c0 27.65-22.35 50-50 50H50c-27.65 0-50-22.35-50-50V50C0 22.35 22.35 0 50 0z"/><path class="letters" d="M357.98 870q-7.7 0-12.32-4.62-4.62-5.39-4.62-13.09V348.71q0-7.7 4.62-12.32 4.62-5.39 12.32-5.39h38.5q8.47 0 13.09 4.62 4.62 4.62 4.62 13.09v503.58q0 7.7-5.39 13.09-4.62 4.62-12.32 4.62h-38.5zm-20.31 0q-7.7 0-12.32-4.62-4.62-5.39-4.62-13.09V348.71q0-7.7 4.62-12.32 4.62-5.39 12.32-5.39h38.5q8.47 0 13.09 4.62 4.62 4.62 4.62 13.09v503.58q0 7.7-5.39 13.09-4.62 4.62-12.32 4.62h-38.5zm368.35 0q-7.7 0-13.09-4.62-4.62-5.39-4.62-13.09V397.22H539.7q-7.7 0-13.09-4.62-4.62-5.39-4.62-13.09v-30.03q0-8.47 4.62-13.09Q532 331 539.7 331h369.6q8.47 0 13.09 5.39 4.62 4.62 4.62 13.09v30.03q0 7.7-5.39 13.09-4.62 4.62-12.32 4.62H761.46v455.07q0 7.7-5.39 13.09-5.39 4.62-13.09 4.62h-36.96zm-20.31 0q-7.7 0-13.09-4.62-4.62-5.39-4.62-13.09V397.22H519.39q-7.7 0-13.09-4.62-4.62-5.39-4.62-13.09v-30.03q0-8.47 4.62-13.09 5.39-5.39 13.09-5.39h369.6q8.47 0 13.09 5.39 4.62 4.62 4.62 13.09v30.03q0 7.7-5.39 13.09-4.62 4.62-12.32 4.62H741.15v455.07q0 7.7-5.39 13.09-5.39 4.62-13.09 4.62h-36.96z"/></svg></g></g></svg>