<svg xmlns="http://www.w3.org/2000/svg" width="32" height="32" viewBox="0 0 256 256"><defs><linearGradient id="a"><stop offset="0" stop-color="#b565a7"/><stop offset="1" stop-color="#5f4b8b"/></linearGradient></defs><path d="M224 80l-96 56-96-56 96-56z" fill="url(#a)" opacity=".25"/><path fill="#5f4b8b" d="M230.91 172a8 8 0 0 1-2.91 10.91l-96 56a8 8 0 0 1-8.06 0l-96-56A8 8 0 0 1 36 169.09l92 53.65 92-53.65a8 8 0 0 1 10.91 2.91zM220 121.09l-92 53.65-92-53.65a8 8 0 0 0-8 13.82l96 56a8 8 0 0 0 8.06 0l96-56a8 8 0 1 0-8.06-13.82zM24 80a8 8 0 0 1 4-6.91l96-56a8 8 0 0 1 8.06 0l96 56a8 8 0 0 1 0 13.82l-96 56a8 8 0 0 1-8.06 0l-96-56A8 8 0 0 1 24 80zm23.88 0L128 126.74 208.12 80 128 33.26z"/><path fill="url(#a)" d="M230.91 172a8 8 0 0 1-2.91 10.91l-96 56a8 8 0 0 1-8.06 0l-96-56A8 8 0 0 1 36 169.09l92 53.65 92-53.65a8 8 0 0 1 10.91 2.91zM220 121.09l-92 53.65-92-53.65a8 8 0 0 0-8 13.82l96 56a8 8 0 0 0 8.06 0l96-56a8 8 0 1 0-8.06-13.82zM24 80a8 8 0 0 1 4-6.91l96-56a8 8 0 0 1 8.06 0l96 56a8 8 0 0 1 0 13.82l-96 56a8 8 0 0 1-8.06 0l-96-56A8 8 0 0 1 24 80zm23.88 0L128 126.74 208.12 80 128 33.26z"/></svg>