<svg xmlns="http://www.w3.org/2000/svg" width="32" height="32" viewBox="0 0 256 256"><path d="M184 128a56 56 0 1 1-56-56 56 56 0 0 1 56 56z" fill="#d8dee9" opacity=".25"/><path fill="#d8dee9" d="M120 40v-8a8 8 0 0 1 16 0v8a8 8 0 0 1-16 0zm72 88a64 64 0 1 1-64-64 64.07 64.07 0 0 1 64 64zm-16 0a48 48 0 1 0-48 48 48.05 48.05 0 0 0 48-48zM58.34 69.66a8 8 0 0 0 11.32-11.32l-8-8a8 8 0 0 0-11.32 11.32zm0 116.68l-8 8a8 8 0 0 0 11.32 11.32l8-8a8 8 0 0 0-11.32-11.32zM192 72a8 8 0 0 0 5.66-2.34l8-8a8 8 0 0 0-11.32-11.32l-8 8A8 8 0 0 0 192 72zm5.66 114.34a8 8 0 0 0-11.32 11.32l8 8a8 8 0 0 0 11.32-11.32zM40 120h-8a8 8 0 0 0 0 16h8a8 8 0 0 0 0-16zm88 88a8 8 0 0 0-8 8v8a8 8 0 0 0 16 0v-8a8 8 0 0 0-8-8zm96-88h-8a8 8 0 0 0 0 16h8a8 8 0 0 0 0-16z"/></svg>