<svg xmlns="http://www.w3.org/2000/svg" width="32" height="32" viewBox="0 0 256 256" focusable="false">
    <defs>
        <linearGradient id="gradient">
            <stop offset="0" stop-color="#b565a7"></stop>
            <stop offset="1" stop-color="#5f4b8b"></stop>
        </linearGradient>
    </defs>
    <path d="M208,216H160L48,40H96Z" fill="url(#gradient)" opacity="0.25"></path>
    <path
        fill="#5f4b8b"
        id="x-solid"
        d="M214.75,211.71l-62.6-98.38,61.77-67.95a8,8,0,0,0-11.84-10.76L143.24,99.34,102.75,35.71A8,8,0,0,0,96,32H48a8,8,0,0,0-6.75,12.3l62.6,98.37-61.77,68a8,8,0,1,0,11.84,10.76l58.84-64.72,40.49,63.63A8,8,0,0,0,160,224h48a8,8,0,0,0,6.75-12.29ZM164.39,208,62.57,48h29L193.43,208Z"
    ></path>
    <path
        fill="url(#gradient)"
        id="x-gradient"
        d="M214.75,211.71l-62.6-98.38,61.77-67.95a8,8,0,0,0-11.84-10.76L143.24,99.34,102.75,35.71A8,8,0,0,0,96,32H48a8,8,0,0,0-6.75,12.3l62.6,98.37-61.77,68a8,8,0,1,0,11.84,10.76l58.84-64.72,40.49,63.63A8,8,0,0,0,160,224h48a8,8,0,0,0,6.75-12.29ZM164.39,208,62.57,48h29L193.43,208Z"
    ></path>
</svg>
