<svg xmlns="http://www.w3.org/2000/svg" width="32" height="32" viewBox="0 0 256 256" focusable="false">
    <defs>
        <linearGradient id="gradient">
            <stop offset="0" stop-color="#b565a7"></stop>
            <stop offset="1" stop-color="#5f4b8b"></stop>
        </linearGradient>
    </defs>
    <path d="M224,128a96,96,0,1,1-96-96A96,96,0,0,1,224,128Z" fill="url(#gradient)" opacity="0.25"></path>
    <path
        fill="#5f4b8b"
        id="caret-right-solid"
        d="M128,24A104,104,0,1,0,232,128,104.11,104.11,0,0,0,128,24Zm0,192a88,88,0,1,1,88-88A88.1,88.1,0,0,1,128,216Zm29.66-93.66a8,8,0,0,1,0,11.32l-40,40a8,8,0,0,1-11.32-11.32L140.69,128,106.34,93.66a8,8,0,0,1,11.32-11.32Z"
    ></path>
    <path
        fill="url(#gradient)"
        id="caret-right-gradient"
        d="M128,24A104,104,0,1,0,232,128,104.11,104.11,0,0,0,128,24Zm0,192a88,88,0,1,1,88-88A88.1,88.1,0,0,1,128,216Zm29.66-93.66a8,8,0,0,1,0,11.32l-40,40a8,8,0,0,1-11.32-11.32L140.69,128,106.34,93.66a8,8,0,0,1,11.32-11.32Z"
    ></path>
</svg>
