<svg xmlns="http://www.w3.org/2000/svg" viewBox="0 0 32 32" width="32px" height="32px">
<defs>
        <linearGradient id="gradient">
            <stop offset="0" stop-color="#b565a7" />
            <stop offset="1" stop-color="#5f4b8b" />
        </linearGradient>
    </defs>
    <path fill="#2E3440" id="cv-front" d="M 15 4 L 15 20.5625 L 9.71875 15.28125 L 8.28125 16.71875 L 15.28125 23.71875 L 16 24.40625 L 16.71875 23.71875 L 23.71875 16.71875 L 22.28125 15.28125 L 17 20.5625 L 17 4 Z M 7 26 L 7 28 L 25 28 L 25 26 Z"/>
    <path fill="url(#gradient)" id="cv-hover" d="M 15 4 L 15 20.5625 L 9.71875 15.28125 L 8.28125 16.71875 L 15.28125 23.71875 L 16 24.40625 L 16.71875 23.71875 L 23.71875 16.71875 L 22.28125 15.28125 L 17 20.5625 L 17 4 Z M 7 26 L 7 28 L 25 28 L 25 26 Z"/>
</svg>