<svg xmlns="http://www.w3.org/2000/svg" viewBox="0 0 32 32" width="32px" height="32px" focusable="false">
    <defs>
        <linearGradient id="gradient">
            <stop offset="0" stop-color="#b565a7"></stop>
            <stop offset="1" stop-color="#5f4b8b"></stop>
        </linearGradient>
    </defs>
    <path fill="2e3440" id="cv-solid" d="M 5 5 L 5 27 L 27 27 L 27 5 Z M 7 7 L 25 7 L 25 25 L 7 25 Z M 13 10 L 13 12 L 18.5625 12 L 9.28125 21.28125 L 10.71875 22.71875 L 20 13.4375 L 20 19 L 22 19 L 22 10 Z"></path>
    <path fill="url(#gradient)" id="cv-gradient" d="M 5 5 L 5 27 L 27 27 L 27 5 Z M 7 7 L 25 7 L 25 25 L 7 25 Z M 13 10 L 13 12 L 18.5625 12 L 9.28125 21.28125 L 10.71875 22.71875 L 20 13.4375 L 20 19 L 22 19 L 22 10 Z"></path>
</svg>