<svg xmlns="http://www.w3.org/2000/svg" width="32" height="32" viewBox="0 0 256 256" focusable="false">
  <defs>
    <linearGradient id="gradient">
      <stop offset="0" stop-color="#b565a7"></stop>
      <stop offset="1" stop-color="#5f4b8b"></stop>
    </linearGradient>
  </defs>
  <path d="M224,128a96,96,0,1,1-96-96A96,96,0,0,1,224,128Z" fill="url(#gradient)" opacity="0.25"></path>
  <path
    fill="#2e3440"
    id="facebook-solid"
    d="M128,24A104,104,0,1,0,232,128,104.11,104.11,0,0,0,128,24Zm8,191.63V152h24a8,8,0,0,0,0-16H136V112a16,16,0,0,1,16-16h16a8,8,0,0,0,0-16H152a32,32,0,0,0-32,32v24H96a8,8,0,0,0,0,16h24v63.63a88,88,0,1,1,16,0Z"
  ></path>
  <path
    fill="url(#gradient)"
    id="facebook-gradient"
    d="M128,24A104,104,0,1,0,232,128,104.11,104.11,0,0,0,128,24Zm8,191.63V152h24a8,8,0,0,0,0-16H136V112a16,16,0,0,1,16-16h16a8,8,0,0,0,0-16H152a32,32,0,0,0-32,32v24H96a8,8,0,0,0,0,16h24v63.63a88,88,0,1,1,16,0Z"
  ></path>
</svg>
