<svg xmlns="http://www.w3.org/2000/svg" width="32" height="32" viewBox="0 0 256 256" focusable="false">
    <defs>
        <linearGradient id="gradient">
            <stop offset="0" stop-color="#b565a7"></stop>
            <stop offset="1" stop-color="#5f4b8b"></stop>
        </linearGradient>
    </defs>
    <path d="M184,80V208a8,8,0,0,1-8,8H48a8,8,0,0,1-8-8V80a8,8,0,0,1,8-8H176A8,8,0,0,1,184,80Z" fill="url(#gradient)" opacity="0.25"></path>
    <path
        fill="#5f4b8b"
        id="link-solid"
        d="M224,104a8,8,0,0,1-16,0V59.32l-66.33,66.34a8,8,0,0,1-11.32-11.32L196.68,48H152a8,8,0,0,1,0-16h64a8,8,0,0,1,8,8Zm-40,24a8,8,0,0,0-8,8v72H48V80h72a8,8,0,0,0,0-16H48A16,16,0,0,0,32,80V208a16,16,0,0,0,16,16H176a16,16,0,0,0,16-16V136A8,8,0,0,0,184,128Z"
    ></path>
    <path
        fill="url(#gradient)"
        id="link-gradient"
        d="M224,104a8,8,0,0,1-16,0V59.32l-66.33,66.34a8,8,0,0,1-11.32-11.32L196.68,48H152a8,8,0,0,1,0-16h64a8,8,0,0,1,8,8Zm-40,24a8,8,0,0,0-8,8v72H48V80h72a8,8,0,0,0,0-16H48A16,16,0,0,0,32,80V208a16,16,0,0,0,16,16H176a16,16,0,0,0,16-16V136A8,8,0,0,0,184,128Z"
    ></path>
</svg>
