<svg xmlns="http://www.w3.org/2000/svg" viewBox="0 0 32 32" width="32px" height="32px" focusable="false">
    <defs>
        <linearGradient id="gradient">
            <stop offset="0" stop-color="#b565a7"></stop>
            <stop offset="1" stop-color="#5f4b8b"></stop>
        </linearGradient>
    </defs>
    <path fill="#2e3440" id="mail-solid" d="M 5 5 L 5 27 L 27 27 L 27 5 Z M 7 7 L 25 7 L 25 25 L 7 25 Z M 9 10 L 9 22 L 23 22 L 23 10 Z M 11.8125 12 L 20.1875 12 L 16 14.78125 Z M 11 13.875 L 15.4375 16.84375 L 16 17.1875 L 16.5625 16.84375 L 21 13.875 L 21 20 L 11 20 Z"></path>
    <path fill="url(#gradient)" id="mail-gradient" d="M 5 5 L 5 27 L 27 27 L 27 5 Z M 7 7 L 25 7 L 25 25 L 7 25 Z M 9 10 L 9 22 L 23 22 L 23 10 Z M 11.8125 12 L 20.1875 12 L 16 14.78125 Z M 11 13.875 L 15.4375 16.84375 L 16 17.1875 L 16.5625 16.84375 L 21 13.875 L 21 20 L 11 20 Z"></path>
</svg>