<svg xmlns="http://www.w3.org/2000/svg" width="32" height="32" fill="#000000" viewBox="0 0 256 256" focusable="false">
    <defs>
        <linearGradient id="gradient">
            <stop offset="0" stop-color="#b565a7"></stop>
            <stop offset="1" stop-color="#5f4b8b"></stop>
        </linearGradient>
    </defs>
    <path d="M195.88,195.88a96,96,0,1,1,0-135.76A96,96,0,0,1,195.88,195.88Z" fill="url(#gradient)" opacity="0.25"></path>
    <path
        fill="#5f4b8b"
        id="scroll-top-solid"
        d="M201.54,54.46A104,104,0,0,0,54.46,201.54,104,104,0,0,0,201.54,54.46ZM190.23,190.23a88,88,0,1,1,0-124.46A88.11,88.11,0,0,1,190.23,190.23Zm-24.57-27.89a8,8,0,0,1-11.32,11.32L128,147.31l-26.34,26.35a8,8,0,0,1-11.32-11.32l32-32a8,8,0,0,1,11.32,0Zm0-56a8,8,0,0,1-11.32,11.32L128,91.31l-26.34,26.35a8,8,0,0,1-11.32-11.32l32-32a8,8,0,0,1,11.32,0Z"
    ></path>
    <path
        fill="url(#gradient)"
        id="scroll-top-gradient"
        d="M201.54,54.46A104,104,0,0,0,54.46,201.54,104,104,0,0,0,201.54,54.46ZM190.23,190.23a88,88,0,1,1,0-124.46A88.11,88.11,0,0,1,190.23,190.23Zm-24.57-27.89a8,8,0,0,1-11.32,11.32L128,147.31l-26.34,26.35a8,8,0,0,1-11.32-11.32l32-32a8,8,0,0,1,11.32,0Zm0-56a8,8,0,0,1-11.32,11.32L128,91.31l-26.34,26.35a8,8,0,0,1-11.32-11.32l32-32a8,8,0,0,1,11.32,0Z"
    ></path>
</svg>
